<svg xmlns="http://www.w3.org/2000/svg" xmlns:xlink="http://www.w3.org/1999/xlink" viewBox="181 397 1174 691" aria-label="HeyView" role="img">
  <rect x="181" y="397" width="1174" height="691" fill="#1E2A38"/>
  <defs>
    <clipPath id="logo-h-clip"><rect x="0" width="774" y="0" height="1222"/></clipPath>
    <clipPath id="logo-y-clip"><rect x="0" width="683" y="0" height="1222"/></clipPath>
  </defs>
  <g transform="matrix(1, 0, 0, 1, 182, 139)">
    <g clip-path="url(#logo-h-clip)">
      <g fill="#f5f3ee" fill-opacity="1">
        <g transform="translate(0.746043, 916.389071)">
          <g><path d="M 736.375 -12.078125 C 738.394531 -12.078125 739.40625 -10.0625 739.40625 -6.03125 C 739.40625 -2.007812 738.394531 0 736.375 0 C 712.90625 0 694.128906 -0.332031 680.046875 -1 L 602.578125 -2.015625 L 512.046875 -1 C 499.972656 -0.332031 483.539062 0 462.75 0 C 460.738281 0 459.734375 -2.007812 459.734375 -6.03125 C 459.734375 -10.0625 460.738281 -12.078125 462.75 -12.078125 C 487.5625 -12.078125 505.664062 -13.75 517.0625 -17.09375 C 528.46875 -20.445312 536.179688 -26.816406 540.203125 -36.203125 C 544.234375 -45.597656 546.25 -60.691406 546.25 -81.484375 L 546.25 -312.859375 L 221.3125 -312.859375 L 221.3125 -81.484375 C 221.3125 -61.367188 223.320312 -46.445312 227.34375 -36.71875 C 231.375 -26.988281 239.085938 -20.445312 250.484375 -17.09375 C 261.890625 -13.75 280 -12.078125 304.8125 -12.078125 C 306.15625 -12.078125 306.828125 -10.0625 306.828125 -6.03125 C 306.828125 -2.007812 306.15625 0 304.8125 0 C 281.34375 0 262.566406 -0.332031 248.484375 -1 L 160.953125 -2.015625 L 85.515625 -1 C 72.097656 -0.332031 53.648438 0 30.171875 0 C 28.835938 0 28.171875 -2.007812 28.171875 -6.03125 C 28.171875 -10.0625 28.835938 -12.078125 30.171875 -12.078125 C 53.648438 -12.078125 70.753906 -13.75 81.484375 -17.09375 C 92.210938 -20.445312 99.585938 -26.988281 103.609375 -36.71875 C 107.640625 -46.445312 109.65625 -61.367188 109.65625 -81.484375 L 109.65625 -547.25 C 109.65625 -567.375 107.640625 -582.128906 103.609375 -591.515625 C 99.585938 -600.910156 92.378906 -607.453125 81.984375 -611.140625 C 71.585938 -614.828125 54.988281 -616.671875 32.1875 -616.671875 C 30.175781 -616.671875 29.171875 -618.679688 29.171875 -622.703125 C 29.171875 -626.722656 30.175781 -628.734375 32.1875 -628.734375 L 86.515625 -627.734375 C 117.367188 -626.390625 142.179688 -625.71875 160.953125 -625.71875 C 186.441406 -625.71875 215.953125 -626.390625 249.484375 -627.734375 L 304.8125 -628.734375 C 306.15625 -628.734375 306.828125 -626.722656 306.828125 -622.703125 C 306.828125 -618.679688 306.15625 -616.671875 304.8125 -616.671875 C 280.664062 -616.671875 262.890625 -614.65625 251.484375 -610.625 C 240.085938 -606.601562 232.207031 -599.726562 227.84375 -590 C 223.488281 -580.28125 221.3125 -565.363281 221.3125 -545.25 L 221.3125 -341.03125 L 546.25 -341.03125 L 546.25 -545.25 C 546.25 -565.363281 544.234375 -580.28125 540.203125 -590 C 536.179688 -599.726562 528.46875 -606.601562 517.0625 -610.625 C 505.664062 -614.65625 487.5625 -616.671875 462.75 -616.671875 C 460.738281 -616.671875 459.734375 -618.679688 459.734375 -622.703125 C 459.734375 -626.722656 460.738281 -628.734375 462.75 -628.734375 L 512.046875 -627.734375 C 545.578125 -626.390625 575.753906 -625.71875 602.578125 -625.71875 C 620.691406 -625.71875 646.515625 -626.390625 680.046875 -627.734375 L 736.375 -628.734375 C 738.394531 -628.734375 739.40625 -626.722656 739.40625 -622.703125 C 739.40625 -618.679688 738.394531 -616.671875 736.375 -616.671875 C 713.570312 -616.671875 696.640625 -614.828125 685.578125 -611.140625 C 674.515625 -607.453125 667.132812 -600.910156 663.4375 -591.515625 C 659.75 -582.128906 657.90625 -567.375 657.90625 -547.25 L 657.90625 -81.484375 C 657.90625 -61.367188 659.75 -46.445312 663.4375 -36.71875 C 667.132812 -26.988281 674.347656 -20.445312 685.078125 -17.09375 C 695.804688 -13.75 712.90625 -12.078125 736.375 -12.078125 Z"/></g>
        </g>
      </g>
    </g>
  </g>
  <g transform="matrix(1, 0, 0, 1, 653, 139)">
    <g clip-path="url(#logo-y-clip)">
      <g fill="#f5f3ee" fill-opacity="1">
        <g transform="translate(0.144626, 916.389071)">
          <g><path d="M 668.984375 -628.734375 C 670.992188 -628.734375 672 -626.722656 672 -622.703125 C 672 -618.679688 670.992188 -616.671875 668.984375 -616.671875 C 644.835938 -616.671875 621.695312 -605.9375 599.5625 -584.46875 C 577.4375 -563.007812 559.664062 -534.175781 546.25 -497.96875 L 360.140625 -1 C 359.472656 1.675781 355.785156 3.015625 349.078125 3.015625 C 342.367188 3.015625 338.679688 1.675781 338.015625 -1 L 81.484375 -545.25 C 69.410156 -569.382812 57.335938 -587.320312 45.265625 -599.0625 C 33.191406 -610.800781 19.78125 -616.671875 5.03125 -616.671875 C 3.019531 -616.671875 2.015625 -618.679688 2.015625 -622.703125 C 2.015625 -626.722656 3.019531 -628.734375 5.03125 -628.734375 C 15.09375 -628.734375 22.132812 -628.398438 26.15625 -627.734375 C 39.570312 -626.390625 57.007812 -625.71875 78.46875 -625.71875 C 136.144531 -625.71875 185.101562 -626.390625 225.34375 -627.734375 C 236.070312 -628.398438 249.484375 -628.734375 265.578125 -628.734375 C 267.585938 -628.734375 268.59375 -626.722656 268.59375 -622.703125 C 268.59375 -618.679688 267.585938 -616.671875 265.578125 -616.671875 C 245.460938 -616.671875 229.867188 -612.476562 218.796875 -604.09375 C 207.734375 -595.707031 202.203125 -583.800781 202.203125 -568.375 C 202.203125 -556.976562 205.890625 -543.234375 213.265625 -527.140625 L 387.296875 -155.921875 L 518.078125 -500.984375 C 524.785156 -519.753906 528.140625 -535.847656 528.140625 -549.265625 C 528.140625 -570.054688 521.9375 -586.488281 509.53125 -598.5625 C 497.125 -610.632812 479.179688 -616.671875 455.703125 -616.671875 C 453.691406 -616.671875 452.6875 -618.679688 452.6875 -622.703125 C 452.6875 -626.722656 453.691406 -628.734375 455.703125 -628.734375 L 505 -627.734375 C 533.164062 -626.390625 558.316406 -625.71875 580.453125 -625.71875 C 593.191406 -625.71875 608.953125 -626.390625 627.734375 -627.734375 Z"/></g>
        </g>
      </g>
    </g>
  </g>
</svg>
